<?xml version="1.0" standalone="no"?>
<!DOCTYPE svg PUBLIC "-//W3C//DTD SVG 20010904//EN"
 "http://www.w3.org/TR/2001/REC-SVG-20010904/DTD/svg10.dtd">
<svg version="1.0" xmlns="http://www.w3.org/2000/svg"
 width="400.000000pt" height="400.000000pt" viewBox="0 0 400.000000 400.000000"
 preserveAspectRatio="xMidYMid meet">
<metadata>
Created by potrace 1.11, written by Peter Selinger 2001-2013
</metadata>
<g transform="translate(0.000000,400.000000) scale(0.100000,-0.100000)"
fill="#000000" stroke="none">
<path d="M430 3006 c-122 -32 -198 -124 -207 -251 -6 -66 10 -135 30 -135 82
1 497 192 497 230 0 4 -18 31 -39 58 -67 84 -181 124 -281 98z"/>
<path d="M822 2878 c-35 -8 -42 -13 -37 -28 7 -21 -47 -58 -190 -130 -142 -71
-249 -110 -371 -135 -109 -22 -115 -21 -66 23 40 36 55 72 30 72 -19 0 -112
-75 -127 -104 -13 -23 -13 -28 0 -42 66 -65 455 56 712 222 54 35 69 41 73 29
10 -25 19 -17 31 28 7 23 15 50 18 60 8 20 -5 21 -73 5z"/>
<path d="M3048 2872 c-13 -2 -14 -86 -14 -670 1 -367 4 -672 9 -679 18 -29
169 -62 307 -67 305 -13 509 172 513 464 1 107 -5 156 -27 217 -85 240 -325
340 -549 230 -37 -19 -69 -31 -71 -28 -1 3 -2 124 -2 269 1 170 -2 262 -9 263
-42 3 -144 3 -157 1z m442 -636 c0 3 17 -4 38 -15 55 -28 100 -80 127 -147 33
-80 31 -213 -4 -292 -29 -63 -97 -127 -155 -144 -79 -22 -257 -9 -275 20 -13
21 -6 488 7 504 20 24 109 68 154 77 24 4 58 4 76 0 17 -4 32 -5 32 -3z"/>
<path d="M730 2697 c-119 -67 -350 -167 -388 -167 -30 0 -2 -26 49 -47 106
-43 226 -18 305 65 31 32 76 128 72 152 -3 16 -6 15 -38 -3z"/>
<path d="M438 2392 c-13 -3 -15 -59 -15 -463 l-1 -460 92 3 91 3 0 458 c0 300
-3 457 -10 458 -30 3 -144 4 -157 1z"/>
<path d="M739 2390 c-1 -3 -2 -317 -3 -697 -1 -460 2 -694 9 -696 5 -2 46 -2
90 -2 l80 2 3 248 c2 230 4 247 20 240 46 -18 144 -32 208 -29 124 6 231 57
313 150 53 60 75 102 95 181 14 55 22 193 13 233 -2 8 -7 31 -11 50 -22 95
-111 211 -196 255 -54 28 -135 53 -196 61 -66 8 -423 12 -425 4z m409 -174
c143 -14 231 -114 237 -270 5 -108 -23 -185 -89 -252 -42 -41 -66 -56 -111
-70 -67 -19 -153 -14 -222 12 l-43 17 0 283 c0 261 1 283 18 286 21 4 138 1
210 -6z"/>
<path d="M1520 2392 c0 -2 77 -180 171 -395 94 -216 186 -426 204 -467 30 -69
35 -75 63 -76 l30 0 133 318 c73 175 136 315 139 311 4 -5 49 -107 99 -228 51
-121 96 -229 101 -240 6 -11 23 -51 39 -90 27 -64 32 -70 59 -71 l30 0 201
465 c111 256 197 467 192 470 -10 7 -179 6 -184 0 -2 -2 -54 -123 -116 -269
-62 -146 -116 -268 -120 -272 -3 -4 -57 116 -119 267 -63 150 -119 275 -125
277 -11 3 -51 3 -110 -1 -11 -1 -24 -16 -34 -38 -8 -21 -23 -56 -32 -78 -10
-22 -55 -129 -101 -238 -46 -108 -85 -195 -88 -193 -2 3 -56 125 -118 272 -63
148 -117 270 -119 273 -6 5 -195 8 -195 3z"/>
<path d="M1579 1358 c-1 -5 -1 -131 0 -152 2 -41 20 0 21 49 3 82 1 105 -10
105 -5 0 -10 -1 -11 -2z"/>
<path d="M980 1334 c0 -14 3 -14 15 -4 8 7 15 14 15 16 0 2 -7 4 -15 4 -8 0
-15 -7 -15 -16z"/>
<path d="M1157 1305 c-18 -13 -24 -31 -7 -20 6 4 10 -9 10 -33 0 -22 6 -44 13
-49 18 -15 47 -12 47 5 0 8 -6 12 -15 8 -10 -3 -17 3 -21 19 -7 27 1 57 13 53
4 -2 9 1 11 7 6 15 -33 24 -51 10z"/>
<path d="M1974 1298 c-10 -12 -13 -18 -6 -14 9 5 12 -3 12 -32 0 -43 20 -68
46 -58 18 7 11 21 -9 21 -7 0 -12 15 -12 35 0 21 5 35 13 35 6 0 11 5 10 10
-2 6 -9 9 -15 9 -7 -1 -10 2 -7 7 11 18 -14 8 -32 -13z"/>
<path d="M987 1303 c-4 -3 -7 -31 -7 -62 0 -65 21 -59 24 8 2 42 -5 66 -17 54z"/>
<path d="M1039 1305 c-1 0 -3 -26 -4 -58 -2 -39 1 -57 9 -54 6 2 11 20 11 40
1 45 18 66 39 48 8 -7 13 -22 10 -34 -5 -27 5 -59 16 -52 10 6 11 77 0 95 -6
10 -62 21 -81 15z"/>
<path d="M1257 1298 c-10 -7 -19 -28 -21 -46 -4 -26 0 -36 19 -48 27 -18 75
-9 75 13 0 11 -4 13 -12 6 -7 -5 -19 -8 -25 -7 -7 1 -18 2 -24 3 -14 1 -6 26
9 27 7 1 23 2 37 3 19 1 23 5 18 19 -7 20 -32 42 -48 42 -6 0 -19 -6 -28 -12z
m44 -23 c0 -5 -9 -11 -21 -13 -20 -3 -27 8 -13 22 10 9 34 3 34 -9z"/>
<path d="M1360 1262 c0 -29 0 -55 -1 -59 0 -4 4 -9 10 -11 7 -2 11 12 11 37 0
42 13 58 43 53 9 -2 17 1 17 7 0 17 -19 22 -38 12 -13 -7 -22 -7 -30 1 -9 9
-12 -1 -12 -40z"/>
<path d="M1455 1300 c-3 -5 -4 -42 -3 -84 1 -56 5 -76 15 -76 9 0 12 8 9 24
-4 21 0 25 30 30 27 6 35 13 42 39 11 39 6 54 -20 63 -32 10 -68 12 -73 4z
m73 -52 c-3 -23 -33 -46 -44 -35 -10 10 -11 51 -1 64 14 19 49 -3 45 -29z"/>
<path d="M1638 1299 c-27 -15 -22 -30 7 -19 16 6 26 6 31 -2 7 -11 -13 -28
-32 -28 -15 0 -25 -26 -18 -44 6 -15 81 -19 90 -5 3 5 0 9 -5 9 -6 0 -11 18
-11 40 0 29 -5 42 -19 50 -23 12 -22 12 -43 -1z m39 -74 c-4 -8 -11 -15 -17
-15 -14 0 -13 27 3 33 16 6 21 1 14 -18z"/>
<path d="M1741 1300 c-10 -8 -7 -105 4 -105 6 0 12 20 15 45 3 31 10 46 22 48
15 3 31 -23 27 -44 -4 -24 2 -54 11 -54 15 0 12 96 -2 108 -13 10 -64 12 -77
2z"/>
<path d="M1877 1298 c-52 -40 -5 -126 57 -102 24 9 19 26 -4 19 -20 -6 -50 9
-50 25 0 4 10 7 23 7 51 1 56 3 50 21 -7 20 -32 42 -48 42 -6 0 -19 -6 -28
-12z m53 -29 c0 -5 -11 -9 -25 -9 -26 0 -34 15 -12 23 16 5 37 -3 37 -14z"/>
<path d="M2068 1299 c-26 -15 -23 -32 3 -18 17 9 23 8 30 -2 6 -10 0 -18 -22
-29 -21 -10 -29 -20 -27 -35 2 -16 11 -20 45 -22 24 0 45 3 49 8 3 5 0 9 -5 9
-6 0 -11 17 -11 38 0 55 -23 74 -62 51z m38 -78 c-8 -13 -36 -15 -36 -3 0 4 5
13 12 20 14 14 34 0 24 -17z"/>
<path d="M2169 1310 c-1 -7 -1 -81 0 -102 2 -36 21 -17 21 21 0 36 19 68 33
55 3 -3 11 -3 18 1 8 6 7 10 -5 17 -11 6 -22 6 -30 -1 -9 -7 -16 -7 -24 1 -7
7 -12 10 -13 8z"/>
<path d="M2260 1297 c0 -7 8 -25 18 -42 18 -29 18 -31 0 -73 -22 -52 -22 -53
-4 -46 8 3 30 41 51 86 44 97 40 115 -10 43 -13 -19 -14 -19 -20 7 -7 27 -35
47 -35 25z"/>
<path d="M2379 1170 c0 -5 0 -30 0 -55 0 -97 1 -103 19 -107 19 -5 71 10 73
20 11 64 -3 92 -47 92 -13 0 -23 3 -23 8 4 23 -2 52 -11 52 -5 0 -10 -4 -11
-10z m70 -87 c12 -23 -4 -53 -29 -53 -15 0 -20 7 -20 28 0 44 29 59 49 25z"/>
<path d="M2717 1173 c-2 -5 -3 -41 -3 -82 1 -50 5 -76 14 -78 7 -3 12 6 12 24
l1 28 24 -27 c13 -16 32 -28 41 -28 14 0 12 6 -11 30 l-29 30 24 25 c18 20 20
25 8 25 -9 0 -26 -12 -37 -27 l-20 -28 -2 40 c-1 22 -1 48 0 58 2 17 -14 24
-22 10z"/>
<path d="M2125 1093 l-16 -38 -14 33 c-18 40 -27 40 -46 0 l-15 -31 -13 31
c-8 18 -19 32 -27 32 -10 0 -7 -13 10 -51 13 -27 26 -53 30 -56 3 -3 13 11 22
33 l16 39 15 -38 c16 -40 28 -47 36 -19 3 9 12 34 21 54 9 22 12 39 6 43 -5 3
-17 -11 -25 -32z"/>
<path d="M2627 1115 c-22 -16 -31 -59 -17 -84 8 -15 20 -21 45 -21 19 0 35 5
35 10 0 6 -13 10 -29 10 -33 0 -46 22 -30 52 8 14 18 19 35 15 15 -2 24 0 24
8 0 17 -44 24 -63 10z"/>
<path d="M2173 1105 c-3 -9 -3 -19 1 -22 3 -4 6 -1 6 5 0 7 9 12 20 12 27 0
25 -23 -2 -35 -13 -6 -24 -20 -26 -32 -3 -21 1 -23 43 -23 41 0 46 2 40 18 -4
9 -8 28 -9 42 -1 14 -5 31 -9 38 -11 17 -56 15 -64 -3z m50 -70 c-6 -18 -19
-19 -29 -4 -7 12 15 31 28 23 4 -3 5 -11 1 -19z"/>
<path d="M2260 1115 c0 -3 9 -23 20 -45 l20 -39 -20 -37 c-21 -36 -21 -52 -1
-39 10 5 81 147 81 160 0 3 -6 5 -14 5 -8 0 -17 -11 -20 -25 -4 -14 -10 -25
-15 -25 -4 0 -13 11 -19 25 -10 22 -32 35 -32 20z"/>
<path d="M2497 1106 c-5 -12 0 -14 23 -9 37 7 41 -13 6 -29 -29 -13 -40 -36
-27 -52 11 -14 91 -9 91 6 0 5 -4 7 -9 3 -6 -3 -11 16 -13 42 -3 46 -5 48 -34
51 -21 2 -33 -2 -37 -12z m53 -60 c0 -18 -17 -29 -30 -21 -8 5 -7 11 1 21 15
18 29 18 29 0z"/>
</g>
</svg>
